<?xml version="1.0" encoding="UTF-8" standalone="no"?>
<svg
   width="56"
   height="56"
   viewBox="0 0 56 56"
   fill="none"
   version="1.1"
   id="svg1"
   sodipodi:docname="LOGO-IMAGE.svg"
   inkscape:version="1.3 (0e150ed, 2023-07-21)"
   xmlns:inkscape="http://www.inkscape.org/namespaces/inkscape"
   xmlns:sodipodi="http://sodipodi.sourceforge.net/DTD/sodipodi-0.dtd"
   xmlns="http://www.w3.org/2000/svg"
   xmlns:svg="http://www.w3.org/2000/svg">
  <sodipodi:namedview
     id="namedview1"
     pagecolor="#ffffff"
     bordercolor="#000000"
     borderopacity="0.25"
     inkscape:showpageshadow="2"
     inkscape:pageopacity="0.0"
     inkscape:pagecheckerboard="0"
     inkscape:deskcolor="#d1d1d1"
     inkscape:zoom="4.2142857"
     inkscape:cx="51.61017"
     inkscape:cy="9.0169492"
     inkscape:window-width="1920"
     inkscape:window-height="1027"
     inkscape:window-x="1440"
     inkscape:window-y="25"
     inkscape:window-maximized="1"
     inkscape:current-layer="svg1" />
  <g
     id="_圖層_2"
     clip-path="url(#clip0_17_43)"
     transform="matrix(0.54500686,0,0,0.54500686,-2e-7,13.525424)">
    <path
       id="Vector"
       d="m 102.751,0.105276 c 0,0 -11.2062,12.113824 -14.182,14.544724 -3.8134,3.1105 -6.5841,4.7741 -10.9071,5.6645 -1.5991,0.328 -3.5673,0.6268 -5.8108,0.6268 h -9.5775 c -0.779,-0.2226 -1.687,-0.3749 -2.6711,-0.4452 -0.0937,-0.0235 -0.1874,-0.041 -0.287,-0.041 h -9.5306 c -0.3514,-0.5565 -0.8259,-1.318 -1.3297,-2.103 0.949,-0.1933 1.5758,-0.533 1.5758,-0.9196 0,-0.5331 -1.236,-0.9841 -2.8645,-1.072 -0.5565,-0.8435 -1.0368,-1.564 -1.3062,-1.9038 -0.1289,-0.1523 -0.7616,-0.9489 -1.6344,-2.056 0.8436,-0.1992 1.3825,-0.5155 1.3825,-0.8728 0,-0.5448 -1.2594,-0.9958 -2.9113,-1.0779 C 40.2544,7.33959 37.2669,3.5262 37.0444,3.36218 h -2.103 c 0.4804,1.441 5.5063,13.56062 5.805,14.25192 0,0.5799 0.0118,1.8979 0.0235,2.841 H 26.6937 c -1.2711,-1.6285 -4.3698,-5.7758 -4.5573,-5.9632 h -2.7883 c 0.5799,0.9138 2.5891,4.5397 3.3975,6.4494 H 0 c 0,0 9.69456,-10.8486 12.1548,-12.87535 2.4603,-2.02678 7.5272,-5.50042 11.4343,-6.50795 3.9071,-1.013393 6.0335,-1.206699 8.8276,-1.452724 2.8,-0.240167 70.3343,0 70.3343,0 z"
       fill="#1d3455" />
    <path
       id="Vector_2"
       d="m 70.8142,24.8486 c 0,0 -11.0418,11.9322 -13.9766,14.3398 -3.7606,3.0636 -6.4903,4.7037 -10.7489,5.5824 -1.5699,0.3222 -3.5146,0.615 -5.723,0.615 H 20.6602 V 56.0001 H -1.74874e-5 V 45.3858 43.1892 c 0,0 -0.1112975126,-1.6577 0.7732214874,-4.4167 C 1.65772,36.0076 4.75061,31.0402 9.16735,27.9532 12.0669,25.9264 15.728,25.0888 17.9012,24.7549 h 4.9498 c 0,0 -0.0175,0.0351 -0.0234,0.0586 -0.7439,1.8393 -2.882,5.7113 -3.4854,6.6544 h 2.7883 c 0.1875,-0.1875 3.2979,-4.3406 4.5632,-5.9691 H 40.764 c -0.0117,0.9431 -0.0234,2.267 -0.0234,2.8469 -0.2988,0.6912 -5.3247,12.8109 -5.805,14.2519 h 2.1029 c 0.2167,-0.1641 3.2042,-3.9774 5.6527,-7.0938 1.6519,-0.0761 2.9113,-0.5272 2.9113,-1.0719 0,-0.3574 -0.5448,-0.6737 -1.3883,-0.8728 0.8728,-1.113 1.5113,-1.9097 1.6402,-2.062 0.2694,-0.3397 0.7498,-1.0602 1.3121,-1.9037 1.6168,-0.0879 2.8586,-0.5331 2.8586,-1.072 0,-0.3807 -0.6268,-0.7205 -1.5757,-0.9138 0.5037,-0.7966 0.9841,-1.5523 1.3297,-2.1088 h 9.5305 c 0.0996,0 0.1933,-0.0176 0.287,-0.0351 1.2477,-0.082 2.3783,-0.3105 3.2687,-0.6385 4.8619,0.0234 7.9372,0.0293 7.9372,0.0293 z"
       fill="#1d3455" />
  </g>
  <defs
     id="defs1">
    <clipPath
       id="clip0_17_43">
      <rect
         width="102.751"
         height="56"
         fill="#ffffff"
         id="rect1"
         x="0"
         y="0" />
    </clipPath>
  </defs>
</svg>
