<svg width="207" height="32" viewBox="0 0 207 32" fill="none" xmlns="http://www.w3.org/2000/svg">
<g id="_&#229;&#156;&#150;&#229;&#177;&#164;_2" clip-path="url(#clip0_17_46)">
<path id="Vector" d="M5.80701 14.0413V24.6382H0.75061V0H18.0601V4.23109H5.80701V9.80468H16.6131V14.0358H5.80701V14.0413Z" fill="#EAC14A"/>
<path id="Vector_2" d="M29.9665 0V24.6382H25.2183V0H29.9665Z" fill="#1D3455"/>
<path id="Vector_3" d="M43.4852 6.3988V24.6381H38.7369V6.3988H43.4852ZM41.0808 0.137451C41.7025 0.137451 42.2197 0.357534 42.6488 0.792197C43.0725 1.22686 43.2871 1.75506 43.2871 2.37679C43.2871 2.99852 43.0725 3.52122 42.6488 3.94488C42.2252 4.36854 41.7025 4.58312 41.0808 4.58312C40.459 4.58312 39.9363 4.37404 39.4962 3.94488C39.0615 3.52122 38.8414 2.99852 38.8414 2.37679C38.8414 1.75506 39.0615 1.23236 39.4962 0.792197C39.9308 0.352032 40.459 0.137451 41.0808 0.137451Z" fill="#1D3455"/>
<path id="Vector_4" d="M63.7547 6.39878H68.2609V24.4621C68.2609 27.2846 67.3751 29.3039 65.6089 30.5198C64.1179 31.5047 62.0766 31.9999 59.4851 31.9999C56.8937 31.9999 54.7148 31.4167 53.2898 30.2447C52.1179 29.3039 51.5126 28.1704 51.4686 26.8389H56.3545C56.7451 28.2585 57.8675 28.9737 59.7272 28.9737C60.8992 28.9737 61.884 28.6051 62.6873 27.8733C63.3971 27.2296 63.7547 26.2337 63.7547 24.8802V22.1622C62.8854 23.2406 62.0711 23.9834 61.3118 24.4015C60.5525 24.8142 59.6392 25.0233 58.5608 25.0233C56.2004 25.0233 54.3297 24.0604 52.9542 22.1347C51.7382 20.4841 51.133 18.3823 51.133 15.8403C51.133 12.8362 51.9473 10.3823 53.5759 8.47856C54.9954 6.84995 56.7176 6.03564 58.7368 6.03564C60.7561 6.03564 62.3847 6.9875 63.7602 8.89122V6.41529L63.7547 6.39878ZM59.6942 9.97512C58.5443 9.97512 57.6254 10.5033 56.9212 11.5597C56.2224 12.6161 55.8703 13.9916 55.8703 15.6863C55.8703 17.3809 56.2169 18.6244 56.9212 19.6092C57.6199 20.5941 58.5443 21.0893 59.6942 21.0893C60.8441 21.0893 61.873 20.5831 62.6543 19.5762C63.3861 18.6354 63.7547 17.3259 63.7547 15.6533C63.7547 13.8431 63.3311 12.407 62.4838 11.3506C61.752 10.4318 60.8221 9.97512 59.6942 9.97512Z" fill="#1D3455"/>
<path id="Vector_5" d="M76.8992 0H81.6475V8.97937C82.9294 7.00963 84.7121 6.01926 86.979 6.01926C88.5856 6.01926 89.9391 6.48693 91.0395 7.42778C92.2995 8.46217 92.9322 10.1018 92.9322 12.3466V24.6327H88.1839V13.3095C88.1839 11.1307 87.221 10.0413 85.2953 10.0413C84.2169 10.0413 83.3366 10.3714 82.6653 11.0371C81.9886 11.7029 81.6475 12.5612 81.6475 13.6176V24.6272H76.8992V0Z" fill="#1D3455"/>
<path id="Vector_6" d="M110.038 6.39881V9.52948H106.836V19.6808C106.836 20.3465 106.957 20.8032 107.199 21.0563C107.441 21.3094 107.881 21.4359 108.525 21.4359C109.053 21.4359 109.73 21.2269 110.555 20.8197C110.621 20.7757 110.682 20.7372 110.726 20.7152L111.276 23.9504C109.829 24.6602 108.316 25.0178 106.731 25.0178C103.634 25.0178 102.088 23.5983 102.088 20.7537V9.53498H99.7492V6.40431H102.088V3.37818L106.836 0.660156V6.40431H110.038V6.39881Z" fill="#1D3455"/>
<path id="Vector_7" d="M123.975 14.0413V20.4072H137.328V24.6382H118.918V0H136.707V4.23109H123.975V9.80468H135.777V14.0358H123.975V14.0413Z" fill="#EAC14A"/>
<path id="Vector_8" d="M160.619 23.4333V24.6383H155.458C155.117 24.2036 154.929 23.5819 154.907 22.7786C153.647 24.2696 151.81 25.0179 149.4 25.0179C147.634 25.0179 146.209 24.4787 145.136 23.4003C144.266 22.531 143.826 21.326 143.826 19.7855C143.826 17.4911 144.745 15.8625 146.577 14.8996C147.359 14.487 148.905 14.0743 151.221 13.6617L154.935 12.9739L154.902 11.6644C154.88 10.4484 153.961 9.83772 152.151 9.83772C150.979 9.83772 150.159 10.0138 149.691 10.3714C149.224 10.7291 148.927 11.3728 148.817 12.3136H144.277C144.553 8.11557 147.144 6.01929 152.052 6.01929C154.759 6.01929 156.707 6.50347 157.901 7.46633C158.979 8.38517 159.518 9.77169 159.518 11.6314V21.8157C159.518 22.641 159.887 23.1802 160.619 23.4333ZM154.94 15.8295L151.463 16.6218C150.478 16.8529 149.741 17.183 149.262 17.6176C148.806 18.0523 148.575 18.5915 148.575 19.2352C148.575 20.5447 149.422 21.194 151.122 21.194C153.576 21.194 154.836 19.8515 154.907 17.1665L154.94 15.824V15.8295Z" fill="#1D3455"/>
<path id="Vector_9" d="M183.122 11.7688H178.302C178.28 11.037 178.016 10.5143 177.51 10.2007C177.004 9.89261 176.134 9.73855 174.896 9.73855C173.086 9.73855 172.178 10.2667 172.178 11.3231C172.178 11.9449 172.729 12.4015 173.829 12.6987L179.815 14.3823C182.203 15.048 183.392 16.5611 183.392 18.9215C183.392 20.7812 182.671 22.2833 181.224 23.4277C179.87 24.4841 177.923 25.0123 175.375 25.0123C172.255 25.0123 170.016 24.5556 168.663 23.6368C167.331 22.7674 166.621 21.3534 166.528 19.4057H171.243C171.381 20.165 171.705 20.6656 172.222 20.9187C172.74 21.1718 173.697 21.2984 175.094 21.2984C177.455 21.2984 178.638 20.7372 178.638 19.6148C178.638 18.949 178.11 18.4593 177.053 18.1347L171.408 16.4126C169.961 15.9779 168.976 15.4717 168.448 14.8995C167.76 14.1897 167.414 13.2269 167.414 12.0109C167.414 10.0137 168.173 8.47858 169.686 7.40017C171.017 6.48133 172.762 6.02466 174.918 6.02466C177.532 6.02466 179.601 6.60788 181.114 7.77982C182.423 8.8142 183.083 10.1402 183.111 11.7688H183.122Z" fill="#1D3455"/>
<path id="Vector_10" d="M206.726 16.7592H194.478C194.544 18.2282 194.775 19.2736 195.166 19.8899C195.832 20.8967 196.877 21.4029 198.297 21.4029C200.063 21.4029 201.246 20.6712 201.84 19.2021H206.522C205.994 20.9903 204.965 22.4098 203.441 23.4497C201.917 24.4951 200.134 25.0178 198.088 25.0178C195.315 25.0178 193.18 24.0879 191.689 22.2282C190.379 20.5996 189.724 18.4538 189.724 15.7963C189.724 12.5611 190.572 10.0632 192.272 8.29701C193.763 6.78394 195.722 6.02466 198.154 6.02466C200.013 6.02466 201.642 6.48133 203.039 7.40017C204.437 8.31902 205.438 9.601 206.033 11.2516C206.517 12.5391 206.753 14.0852 206.753 15.8954C206.753 16.1264 206.742 16.4126 206.72 16.7537L206.726 16.7592ZM201.807 13.6285C201.576 10.9655 200.349 9.63951 198.126 9.63951C196.041 9.63951 194.847 10.971 194.55 13.6285H201.813H201.807Z" fill="#1D3455"/>
</g>
<defs>
<clipPath id="clip0_17_46">
<rect width="206.014" height="32" fill="white" transform="translate(0.75061)"/>
</clipPath>
</defs>
</svg>
