<svg width="196" height="92" viewBox="0 0 196 92" fill="none" xmlns="http://www.w3.org/2000/svg">
<g id="LOGO" clip-path="url(#clip0_24_476)">
<path id="Vector" d="M4.81062 74.8191V84.9571H0V61.386H16.4681V65.4338H4.81062V70.766H15.0914V74.8138H4.81062V74.8191Z" fill="white"/>
<path id="Vector_2" d="M27.7959 61.386V84.9571H23.2784V61.386H27.7959Z" fill="white"/>
<path id="Vector_3" d="M40.6573 67.5077V84.9571H36.1398V67.5077H40.6573ZM38.3645 61.5176C38.9561 61.5176 39.4481 61.7281 39.8564 62.144C40.2595 62.5598 40.4636 63.0651 40.4636 63.6599C40.4636 64.2547 40.2595 64.7548 39.8564 65.1601C39.4533 65.5654 38.9561 65.7707 38.3645 65.7707C37.773 65.7707 37.2757 65.5707 36.857 65.1601C36.4434 64.7548 36.2341 64.2547 36.2341 63.6599C36.2341 63.0651 36.4434 62.5651 36.857 62.144C37.2705 61.7229 37.773 61.5176 38.3645 61.5176Z" fill="white"/>
<path id="Vector_4" d="M59.9417 67.5077H64.2289V84.7886C64.2289 87.4889 63.3861 89.4207 61.7058 90.584C60.2872 91.5262 58.3451 92 55.8796 92C53.4141 92 51.3412 91.442 49.9854 90.3208C48.8705 89.4207 48.2947 88.3364 48.2528 87.0626H52.9011C53.2728 88.4206 54.3407 89.1049 56.11 89.1049C57.2249 89.1049 58.1619 88.7522 58.9262 88.0521C59.6014 87.4363 59.9417 86.4835 59.9417 85.1887V82.5884C59.1146 83.6201 58.3399 84.3307 57.6175 84.7307C56.8951 85.1255 56.0262 85.3255 55.0002 85.3255C52.7546 85.3255 50.9748 84.4044 49.6661 82.562C48.5093 80.9829 47.9335 78.9722 47.9335 76.5403C47.9335 73.6663 48.7082 71.3187 50.2576 69.4974C51.6082 67.9393 53.2466 67.1603 55.1677 67.1603C57.0888 67.1603 58.6383 68.0709 59.9469 69.8922V67.5235L59.9417 67.5077ZM56.0785 70.9291C54.9845 70.9291 54.1103 71.4345 53.4403 72.4451C52.7755 73.4557 52.4405 74.7717 52.4405 76.3929C52.4405 78.0142 52.7703 79.2038 53.4403 80.146C54.1051 81.0882 54.9845 81.5619 56.0785 81.5619C57.1726 81.5619 58.1515 81.0777 58.8948 80.1144C59.591 79.2143 59.9417 77.9615 59.9417 76.3613C59.9417 74.6296 59.5386 73.2557 58.7325 72.2451C58.0363 71.366 57.1516 70.9291 56.0785 70.9291Z" fill="white"/>
<path id="Vector_5" d="M72.4472 61.386H76.9647V69.9765C78.1844 68.092 79.8804 67.1446 82.037 67.1446C83.5655 67.1446 84.8533 67.592 85.9002 68.4921C87.0989 69.4817 87.7009 71.0503 87.7009 73.1979V84.9519H83.1834V74.1191C83.1834 72.0346 82.2674 70.9924 80.4352 70.9924C79.4093 70.9924 78.5717 71.3082 77.9331 71.9451C77.2892 72.582 76.9647 73.4032 76.9647 74.4138V84.9466H72.4472V61.3755V61.386Z" fill="white"/>
<path id="Vector_6" d="M103.975 67.5077V70.5028H100.929V80.2144C100.929 80.8513 101.044 81.2882 101.274 81.5303C101.505 81.7725 101.923 81.8935 102.536 81.8935C103.038 81.8935 103.682 81.6935 104.467 81.304C104.53 81.2619 104.588 81.225 104.63 81.204L105.153 84.2991C103.776 84.9781 102.337 85.3202 100.829 85.3202C97.8822 85.3202 96.4113 83.9622 96.4113 81.2408V70.508H94.1866V67.5129H96.4113V64.6179L100.929 62.0176V67.5129H103.975V67.5077Z" fill="white"/>
<path id="Vector_7" d="M117.235 74.8191V80.9093H129.939V84.9571H112.424V61.386H129.348V65.4338H117.235V70.766H128.463V74.8138H117.235V74.8191Z" fill="white"/>
<path id="Vector_8" d="M152.097 83.8043V84.9571H147.187C146.863 84.5413 146.685 83.9465 146.664 83.1779C145.465 84.6044 143.717 85.3203 141.424 85.3203C139.744 85.3203 138.388 84.8044 137.367 83.7727C136.54 82.9411 136.121 81.7883 136.121 80.3145C136.121 78.1195 136.995 76.5614 138.738 75.6402C139.482 75.2455 140.953 74.8507 143.156 74.4559L146.69 73.7979L146.658 72.5452C146.638 71.3819 145.763 70.7976 144.041 70.7976C142.926 70.7976 142.146 70.966 141.701 71.3082C141.256 71.6503 140.974 72.2662 140.869 73.1663H136.55C136.812 69.15 139.278 67.1445 143.947 67.1445C146.522 67.1445 148.375 67.6077 149.511 68.5289C150.537 69.408 151.05 70.7344 151.05 72.5136V82.2568C151.05 83.0464 151.401 83.5622 152.097 83.8043ZM146.695 76.5298L143.387 77.2878C142.45 77.5089 141.748 77.8247 141.293 78.2405C140.858 78.6564 140.639 79.1722 140.639 79.7881C140.639 81.0409 141.445 81.662 143.062 81.662C145.397 81.662 146.596 80.3776 146.664 77.8089L146.695 76.5246V76.5298Z" fill="white"/>
<path id="Vector_9" d="M173.507 72.6451H168.921C168.9 71.9451 168.649 71.445 168.167 71.145C167.686 70.8502 166.859 70.7028 165.681 70.7028C163.959 70.7028 163.095 71.2081 163.095 72.2188C163.095 72.8136 163.619 73.2505 164.666 73.5347L170.361 75.1454C172.633 75.7823 173.763 77.2299 173.763 79.488C173.763 81.2672 173.078 82.7042 171.701 83.7991C170.413 84.8097 168.56 85.315 166.136 85.315C163.168 85.315 161.038 84.8781 159.75 83.9991C158.483 83.1674 157.808 81.8146 157.719 79.9512H162.205C162.336 80.6776 162.645 81.1566 163.137 81.3988C163.629 81.6409 164.54 81.762 165.869 81.762C168.115 81.762 169.241 81.2251 169.241 80.1513C169.241 79.5144 168.738 79.0459 167.733 78.7353L162.362 77.0878C160.986 76.6719 160.049 76.1877 159.546 75.6402C158.892 74.9612 158.562 74.04 158.562 72.8768C158.562 70.966 159.284 69.4974 160.724 68.4657C161.991 67.5867 163.65 67.1498 165.702 67.1498C168.188 67.1498 170.157 67.7077 171.596 68.8289C172.842 69.8185 173.47 71.0871 173.496 72.6451H173.507Z" fill="white"/>
<path id="Vector_10" d="M195.963 77.4194H184.311C184.374 78.8248 184.594 79.8249 184.965 80.4145C185.599 81.3777 186.593 81.862 187.944 81.862C189.624 81.862 190.75 81.1619 191.315 79.7565H195.77C195.267 81.4672 194.288 82.8253 192.838 83.8201C191.388 84.8202 189.692 85.3203 187.745 85.3203C185.107 85.3203 183.076 84.4307 181.657 82.6516C180.411 81.0935 179.788 79.0406 179.788 76.4982C179.788 73.4031 180.595 71.0134 182.212 69.3237C183.631 67.8762 185.494 67.1498 187.808 67.1498C189.577 67.1498 191.127 67.5867 192.456 68.4657C193.786 69.3448 194.738 70.5712 195.304 72.1504C195.764 73.3821 195.99 74.8612 195.99 76.593C195.99 76.814 195.979 77.0878 195.958 77.4141L195.963 77.4194ZM191.284 74.4243C191.064 71.8766 189.896 70.6081 187.782 70.6081C185.798 70.6081 184.662 71.8819 184.379 74.4243H191.289H191.284Z" fill="white"/>
<path id="Vector_11" d="M155.219 0.0947115C155.219 0.0947115 145.205 10.9802 142.546 13.1646C139.138 15.9597 136.662 17.4546 132.799 18.2547C131.37 18.5495 129.611 18.8179 127.606 18.8179H119.048C118.351 18.6179 117.54 18.481 116.661 18.4179C116.577 18.3968 116.493 18.381 116.404 18.381H107.887C107.573 17.881 107.149 17.1967 106.699 16.4913C107.547 16.3176 108.107 16.0123 108.107 15.6649C108.107 15.1859 107.003 14.7806 105.548 14.7016C105.05 13.9437 104.621 13.2962 104.38 12.9909C104.265 12.8541 103.7 12.1382 102.92 11.1433C103.674 10.9644 104.155 10.6801 104.155 10.359C104.155 9.86952 103.03 9.46421 101.554 9.39051C99.3707 6.59546 96.701 3.16875 96.5021 3.02136H94.6229C95.0521 4.31625 99.5434 15.207 99.8104 15.8281C99.8104 16.3492 99.8209 17.5336 99.8314 18.381H87.2526C86.1166 16.9177 83.3475 13.1909 83.18 13.0225H80.6883C81.2066 13.8437 83.002 17.1019 83.7244 18.8179H63.3984C63.3984 18.8179 72.0617 9.06416 74.2602 7.2429C76.4588 5.42164 80.9867 2.30023 84.4782 1.39486C87.9697 0.48423 89.8699 0.310526 92.3668 0.0894477C94.8689 -0.126366 155.219 0.0894477 155.219 0.0894477V0.0947115Z" fill="white"/>
<path id="Vector_12" d="M126.68 22.3288C126.68 22.3288 116.812 33.0511 114.19 35.2145C110.829 37.9675 108.39 39.4413 104.584 40.2309C103.182 40.5204 101.444 40.7836 99.4702 40.7836H81.8609V50.3215H63.4036V40.7836V38.8097C63.4036 38.8097 63.3042 37.32 64.0946 34.8408C64.885 32.3563 67.6489 27.8926 71.5958 25.1186C74.1869 23.2974 77.4586 22.5447 79.4006 22.2446H83.8239C83.8239 22.2446 83.8082 22.2762 83.8029 22.2973C83.1382 23.9501 81.2275 27.4294 80.6883 28.2769H83.18C83.3475 28.1085 86.1271 24.3765 87.2578 22.9131H99.8314C99.8209 23.7606 99.8104 24.9502 99.8104 25.4713C99.5435 26.0924 95.0522 36.9832 94.6229 38.278H96.5021C96.6958 38.1307 99.3655 34.7039 101.554 31.9036C103.03 31.8352 104.155 31.4299 104.155 30.9404C104.155 30.6193 103.668 30.335 102.915 30.1561C103.695 29.1559 104.265 28.4401 104.38 28.3032C104.621 27.9979 105.05 27.3505 105.553 26.5925C106.998 26.5135 108.107 26.1135 108.107 25.6292C108.107 25.2871 107.547 24.9818 106.699 24.8081C107.149 24.0922 107.579 23.4132 107.887 22.9131H116.404C116.493 22.9131 116.577 22.8973 116.661 22.8815C117.776 22.8079 118.786 22.6026 119.582 22.3078C123.926 22.3289 126.675 22.3341 126.675 22.3341L126.68 22.3288Z" fill="white"/>
</g>
<defs>
<clipPath id="clip0_24_476">
<rect width="196" height="92" fill="white"/>
</clipPath>
</defs>
</svg>
