<svg width="103" height="56" viewBox="0 0 103 56" fill="none" xmlns="http://www.w3.org/2000/svg">
<g id="_&#229;&#156;&#150;&#229;&#177;&#164;_2" clip-path="url(#clip0_17_43)">
<path id="Vector" d="M102.751 0.105276C102.751 0.105276 91.5448 12.2191 88.569 14.65C84.7556 17.7605 81.9849 19.4241 77.6619 20.3145C76.0628 20.6425 74.0946 20.9413 71.8511 20.9413H62.2736C61.4946 20.7187 60.5866 20.5664 59.6025 20.4961C59.5088 20.4726 59.4151 20.4551 59.3155 20.4551H49.7849C49.4335 19.8986 48.959 19.1371 48.4552 18.3521C49.4042 18.1588 50.031 17.8191 50.031 17.4325C50.031 16.8994 48.795 16.4484 47.1665 16.3605C46.61 15.517 46.1297 14.7965 45.8603 14.4567C45.7314 14.3044 45.0987 13.5078 44.2259 12.4007C45.0695 12.2015 45.6084 11.8852 45.6084 11.5279C45.6084 10.9831 44.349 10.5321 42.6971 10.45C40.2544 7.33959 37.2669 3.5262 37.0444 3.36218H34.9414C35.4218 4.80318 40.4477 16.9228 40.7464 17.6141C40.7464 18.194 40.7582 19.512 40.7699 20.4551H26.6937C25.4226 18.8266 22.3239 14.6793 22.1364 14.4919H19.3481C19.928 15.4057 21.9372 19.0316 22.7456 20.9413H0C0 20.9413 9.69456 10.0927 12.1548 8.06595C14.6151 6.03917 19.682 2.56553 23.5891 1.558C27.4962 0.544607 29.6226 0.351301 32.4167 0.105276C35.2167 -0.134891 102.751 0.105276 102.751 0.105276Z" fill="#1D3455"/>
<path id="Vector_2" d="M70.8142 24.8486C70.8142 24.8486 59.7724 36.7808 56.8376 39.1884C53.077 42.252 50.3473 43.8921 46.0887 44.7708C44.5188 45.093 42.5741 45.3858 40.3657 45.3858H20.6602V56.0001H-1.74874e-05V45.3858V43.1892C-1.74874e-05 43.1892 -0.111315 41.5315 0.773204 38.7725C1.65772 36.0076 4.75061 31.0402 9.16735 27.9532C12.0669 25.9264 15.728 25.0888 17.9012 24.7549H22.851C22.851 24.7549 22.8335 24.79 22.8276 24.8135C22.0837 26.6528 19.9456 30.5248 19.3422 31.4679H22.1305C22.318 31.2804 25.4284 27.1273 26.6937 25.4988H40.764C40.7523 26.4419 40.7406 27.7658 40.7406 28.3457C40.4418 29.0369 35.4159 41.1566 34.9356 42.5976H37.0385C37.2552 42.4335 40.2427 38.6202 42.6912 35.5038C44.3431 35.4277 45.6025 34.9766 45.6025 34.4319C45.6025 34.0745 45.0577 33.7582 44.2142 33.5591C45.087 32.4461 45.7255 31.6494 45.8544 31.4971C46.1238 31.1574 46.6042 30.4369 47.1665 29.5934C48.7833 29.5055 50.0251 29.0603 50.0251 28.5214C50.0251 28.1407 49.3983 27.8009 48.4494 27.6076C48.9531 26.811 49.4335 26.0553 49.7791 25.4988H59.3096C59.4092 25.4988 59.5029 25.4812 59.5966 25.4637C60.8443 25.3817 61.9749 25.1532 62.8653 24.8252C67.7272 24.8486 70.8025 24.8545 70.8025 24.8545L70.8142 24.8486Z" fill="#1D3455"/>
</g>
<defs>
<clipPath id="clip0_17_43">
<rect width="102.751" height="56" fill="white"/>
</clipPath>
</defs>
</svg>
